<?xml version="1.0" encoding="utf-8"?>
<!-- Generator: Adobe Illustrator 25.0.1, SVG Export Plug-In . SVG Version: 6.00 Build 0)  -->
<svg version="1.1" id="Calque_1" xmlns="http://www.w3.org/2000/svg" xmlns:xlink="http://www.w3.org/1999/xlink" x="0px" y="0px"
	 viewBox="0 0 141.73 141.73" style="enable-background:new 0 0 141.73 141.73;" xml:space="preserve">
<style type="text/css">
	.st0{fill:#FFFFFF;}
</style>
<circle cx="70.69" cy="71.86" r="68.37"/>
<g>
	<path class="st0" d="M102.34,91.08c0,14.84-11.42,26.76-31.46,26.76c-16.36,0-29.55-8.5-31.84-20.42l16.49-3.81
		c0.89,3.93,5.2,8.63,15.35,8.63c9.89,0,13.95-6.09,13.95-12.94c0-10.02-9.39-11.29-15.6-11.29h-7.48V63.42h7.48
		c6.72,0,14.46-2.28,14.46-11.04c0-7.23-4.82-11.16-12.56-11.16c-7.61,0-11.42,4.19-12.81,8.5l-15.73-3.68
		c3.55-11.92,14.59-20.17,28.54-20.17c18.27,0,29.05,10.53,29.05,24.35c0,9.01-4.19,16.11-12.94,20.04
		C96.88,73.57,102.34,80.29,102.34,91.08z"/>
</g>
</svg>
